<?xml version="1.0" standalone="no"?>
<!DOCTYPE svg PUBLIC "-//W3C//DTD SVG 20010904//EN"
 "http://www.w3.org/TR/2001/REC-SVG-20010904/DTD/svg10.dtd">
<svg version="1.0" xmlns="http://www.w3.org/2000/svg"
 width="200.000000pt" height="200.000000pt" viewBox="0 0 200.000000 200.000000"
 preserveAspectRatio="xMidYMid meet">
<metadata>
Created by potrace 1.11, written by Peter Selinger 2001-2013
</metadata>
<g transform="translate(0.000000,200.000000) scale(0.100000,-0.100000)"
fill="#000000" stroke="none">
<path d="M909 1516 c-13 -14 -29 -44 -36 -68 -8 -33 -11 -37 -12 -17 -1 15 -8
32 -16 39 -12 10 -18 6 -35 -23 l-21 -36 -121 4 c-66 2 -131 0 -144 -6 -21 -7
-32 -4 -64 22 -34 27 -42 30 -55 19 -13 -10 -15 -24 -10 -54 3 -23 7 -68 9
-101 1 -33 3 -67 4 -76 3 -26 48 -65 91 -78 36 -10 39 -14 35 -39 -13 -79 -15
-83 -37 -76 -33 10 -44 22 -51 54 -6 34 -57 71 -87 63 -27 -7 -24 -31 7 -55
14 -11 23 -26 20 -34 -8 -20 30 -60 74 -78 29 -11 41 -23 46 -43 10 -42 23
-54 51 -47 15 4 30 0 43 -11 18 -16 20 -16 43 9 29 31 43 33 59 6 14 -21 43
-27 53 -10 3 6 19 10 35 10 31 0 60 30 60 63 0 9 -13 44 -30 77 -16 33 -30 67
-30 77 1 10 17 28 37 41 28 18 38 20 49 11 20 -17 62 4 74 36 11 28 14 28 67
-14 30 -24 31 -28 28 -83 -3 -39 -11 -67 -26 -87 -21 -29 -23 -61 -4 -103 6
-14 2 -18 -17 -18 -29 0 -48 -17 -48 -42 0 -24 26 -34 45 -18 16 13 11 30 -8
30 -8 0 -8 -3 2 -9 10 -6 10 -10 1 -16 -20 -12 -37 13 -20 29 13 12 24 10 77
-8 l63 -21 -31 -65 c-37 -79 -55 -100 -85 -100 -32 0 -54 -10 -54 -25 0 -19
34 -24 61 -9 17 9 49 11 107 7 66 -5 82 -3 83 8 4 42 -10 59 -48 59 -24 0 -31
-24 -11 -36 8 -5 9 -2 5 10 -6 14 -2 17 16 14 14 -2 22 -10 22 -23 0 -18 -6
-20 -59 -17 -33 1 -61 4 -63 6 -6 6 77 176 86 176 21 0 41 32 35 55 -6 23 -4
23 58 20 57 -4 63 -6 63 -26 0 -36 28 -46 72 -25 21 11 44 22 51 25 13 6 41
69 45 101 1 8 15 23 31 33 43 27 55 42 70 84 15 44 11 93 -9 109 -8 6 -16 40
-20 85 -3 40 -8 91 -10 111 -3 40 -30 84 -57 93 -9 3 -36 1 -58 -5 -23 -6 -54
-9 -68 -5 -126 27 -213 32 -287 17 -65 -13 -68 -12 -82 7 -19 27 -36 26 -64
-3z m186 -654 c-3 -3 -11 0 -18 7 -9 10 -8 11 6 5 10 -3 15 -9 12 -12z"/>
<path d="M782 848 c24 -19 30 -94 8 -113 -9 -8 -20 -12 -25 -8 -4 5 -5 2 0 -6
4 -8 2 -17 -6 -22 -10 -6 -10 -9 -2 -9 7 0 17 9 23 20 17 31 30 24 20 -11 -14
-48 -39 -72 -59 -57 -15 11 -15 10 0 -5 28 -32 56 -4 73 73 4 21 10 25 42 24
35 -1 38 -3 40 -34 4 -51 13 -80 25 -80 6 0 8 7 5 17 -16 41 -18 103 -5 120 9
11 10 14 2 9 -17 -10 -18 55 -1 72 8 8 8 12 1 12 -14 0 -23 -24 -23 -60 0 -29
-15 -40 -56 -40 -21 0 -24 4 -22 40 1 42 -15 70 -40 70 -14 0 -14 -1 0 -12z"/>
<path d="M742 833 c-13 -25 3 -64 23 -57 8 3 15 14 15 23 0 14 -2 14 -10 1
-15 -22 -32 7 -19 32 5 10 7 18 5 18 -3 0 -9 -8 -14 -17z"/>
<path d="M731 706 c-8 -13 -11 -30 -8 -38 3 -8 6 -5 6 8 1 11 6 25 13 32 6 6
9 14 7 17 -3 3 -11 -6 -18 -19z"/>
</g>
</svg>
